<?xml version="1.0" encoding="UTF-8"?>
<svg version="1.1" xmlns="http://www.w3.org/2000/svg" width="200" height="182">
<path d="M0 0 C66 0 132 0 200 0 C200 60.06 200 120.12 200 182 C134 182 68 182 0 182 C0 121.94 0 61.88 0 0 Z " fill="#FCFCFC" transform="translate(0,0)"/>
<path d="M0 0 C2 2 2 2 2.23046875 3.91015625 C2.11111111 9.88888889 2.11111111 9.88888889 1 11 C1.00075789 13.12681857 1.0590545 15.25365237 1.140625 17.37890625 C1.25423448 22.89456168 1.26522352 28.36974028 0.95703125 33.87890625 C0.89749268 35.1222876 0.8379541 36.36566895 0.77661133 37.64672852 C-0.19341379 41.83512684 -1.73343326 43.35275028 -5.0625 46 C-6.91253654 46.7178634 -8.76683428 47.42811484 -10.64746094 48.06152344 C-15.79734365 50.11591833 -20.44935629 53.27301945 -25.1875 56.125 C-27.19987808 57.29761484 -29.21415676 58.46697501 -31.23046875 59.6328125 C-33.15726939 60.74897638 -35.0798792 61.87238365 -37 63 C-37.83954224 63.35613373 -38.67908447 63.71226746 -39.54406738 64.07919312 C-42.47916862 65.47261809 -44.66069417 66.73551625 -47 69 C-48.4485317 73.41594896 -48.30616492 77.65986715 -48.1953125 82.2734375 C-48.20335907 83.55231842 -48.21140564 84.83119934 -48.21969604 86.14883423 C-48.23213331 89.53432936 -48.20171263 92.91384845 -48.15020752 96.29858398 C-48.1082143 99.75768608 -48.12296219 103.21650703 -48.1328125 106.67578125 C-48.14063859 113.4514664 -48.09192281 120.22497345 -48 127 C-49.59171021 127.65899292 -49.59171021 127.65899292 -51.21557617 128.33129883 C-54.14838102 129.589387 -56.84788409 130.99194691 -59.55078125 132.69921875 C-60.33130859 133.18583984 -61.11183594 133.67246094 -61.91601562 134.17382812 C-62.70685547 134.67333984 -63.49769531 135.17285156 -64.3125 135.6875 C-65.91021791 136.69544774 -67.51036212 137.6995631 -69.11328125 138.69921875 C-69.81235596 139.14096436 -70.51143066 139.58270996 -71.23168945 140.0378418 C-73 141 -73 141 -75 141 C-75.1546875 142.175625 -75.1546875 142.175625 -75.3125 143.375 C-76 146 -76 146 -79 148 C-83.34726937 147.86199145 -85.89862332 147.74342926 -89.5 145.3125 C-91.44773956 142.30973484 -91.53443492 140.51200089 -91 137 C-87.93141975 134.95427983 -87.38704016 134.82612096 -83.96484375 134.75390625 C-77.9042803 134.19535726 -73.57528132 131.1889334 -68.5625 127.9375 C-66.79516226 126.81814375 -65.0257353 125.70207706 -63.25390625 124.58984375 C-62.48377197 124.09347412 -61.7136377 123.59710449 -60.92016602 123.08569336 C-59 122 -59 122 -57 122 C-57 102.86 -57 83.72 -57 64 C-44.1875 56.6875 -44.1875 56.6875 -40.00512695 54.30151367 C-34.31641235 51.05376769 -28.63401649 47.7970396 -22.98046875 44.48828125 C-21.67009644 43.72221558 -21.67009644 43.72221558 -20.33325195 42.94067383 C-18.72412243 41.99763348 -17.11709708 41.05099127 -15.51245117 40.1003418 C-10.2195226 37 -10.2195226 37 -8 37 C-8.10948106 32.8744331 -8.24020225 28.74981122 -8.375 24.625 C-8.4059375 23.449375 -8.436875 22.27375 -8.46875 21.0625 C-8.50742188 19.94101562 -8.54609375 18.81953125 -8.5859375 17.6640625 C-8.6173584 16.62717285 -8.6487793 15.5902832 -8.68115234 14.52197266 C-8.75954472 11.83190165 -8.75954472 11.83190165 -11 10 C-11.5410628 4.04830918 -11.5410628 4.04830918 -10 1.0625 C-6.64558048 -0.71953537 -3.76220155 -0.29858742 0 0 Z " fill="#446498" transform="translate(124,23)"/>
<path d="M0 0 C2 2 2 2 2.1875 5.5625 C2 9 2 9 1 10 C1.13671783 12.13177135 1.32238079 14.2604236 1.52734375 16.38671875 C2.99206844 37.15234008 2.99206844 37.15234008 -2.04394531 43.62841797 C-7.60965907 48.11395077 -14.06685071 50.79752454 -20.63183594 53.50976562 C-26.1616859 55.95643163 -31.1883992 59.18401026 -36.3125 62.375 C-38.11551455 63.47534045 -39.92367683 64.56731707 -41.73828125 65.6484375 C-42.86810425 66.33172119 -42.86810425 66.33172119 -44.02075195 67.02880859 C-46 68 -46 68 -49 68 C-48.97113205 68.70886353 -48.9422641 69.41772705 -48.91252136 70.14807129 C-48.65115578 76.8553021 -48.45370458 83.56109839 -48.32644176 90.27228546 C-48.25880153 93.72248314 -48.16725924 97.16844997 -48.01928711 100.61621094 C-47.08973986 122.8476472 -47.08973986 122.8476472 -50.21118164 127.99871826 C-53.58787898 131.36461564 -57.48156206 132.60760357 -62 134 C-64.26951953 135.11852369 -66.42821497 136.36399606 -68.625 137.625 C-69.58664063 138.13289062 -70.54828125 138.64078125 -71.5390625 139.1640625 C-74.53633655 141.40012409 -75.47794723 143.63303478 -77 147 C-79.90295805 148.45147903 -81.77261779 148.37239025 -85 148 C-88.375 145.875 -88.375 145.875 -91 143 C-91.5625 139.8125 -91.5625 139.8125 -91 137 C-88.01774899 135.01183266 -86.84286508 134.7000613 -83.4375 134.2265625 C-77.51994893 133.12777304 -73.05827068 130.53341307 -68 127.375 C-66.33546067 126.35848743 -64.66889406 125.34528462 -63 124.3359375 C-62.278125 123.88782715 -61.55625 123.4397168 -60.8125 122.97802734 C-59 122 -59 122 -57 122 C-57.04219162 121.29779831 -57.08438324 120.59559662 -57.12785339 119.87211609 C-57.5106685 113.21094486 -57.79876817 106.55288503 -57.98443127 99.88315105 C-58.0831339 96.45398857 -58.21643222 93.03398739 -58.43334961 89.61010742 C-59.79339579 67.57089007 -59.79339579 67.57089007 -55.21981812 61.72433472 C-50.79255755 58.03166749 -45.87929867 55.91524907 -40.49368286 53.98170471 C-36.36742772 52.35729442 -32.69713979 50.01490812 -28.9375 47.6875 C-27.5512677 46.86806055 -26.16349984 46.05120663 -24.7734375 45.23828125 C-20.74819576 42.86009653 -16.75705178 40.42719167 -12.78515625 37.9609375 C-11 37 -11 37 -9 37 C-9.13811922 32.68721615 -9.28678109 28.37486047 -9.4375 24.0625 C-9.47681641 22.83080078 -9.51613281 21.59910156 -9.55664062 20.33007812 C-9.59853516 19.16025391 -9.64042969 17.99042969 -9.68359375 16.78515625 C-9.72025146 15.70113525 -9.75690918 14.61711426 -9.79467773 13.50024414 C-9.72364265 11.060737 -9.72364265 11.060737 -11 10 C-11.58309038 2.7696793 -11.58309038 2.7696793 -9.4375 -0.0625 C-5.9788559 -1.39274773 -3.5559841 -0.85607025 0 0 Z " fill="#3F6095" transform="translate(108,14)"/>
<path d="M0 0 C1.875 1.0625 1.875 1.0625 3 3 C3.25 6.625 3.25 6.625 3 10 C2.67 10.33 2.34 10.66 2 11 C2.18632842 13.10899412 2.41822461 15.21397853 2.66796875 17.31640625 C3.33527897 25.75658729 3.8678128 33.9124085 1 42 C-5.30708361 49.25147302 -14.68646888 52.76225831 -23.37695312 56.40820312 C-28.56013927 58.68545202 -33.30672011 61.54534931 -38.125 64.5 C-45.68069049 69 -45.68069049 69 -48 69 C-47.9622496 69.7044223 -47.92449921 70.4088446 -47.88560486 71.13461304 C-47.5433297 77.81118022 -47.28540935 84.48526877 -47.11919308 91.16866112 C-47.03083641 94.60472137 -46.91141866 98.03348004 -46.7175293 101.46533203 C-45.49959262 123.59177486 -45.49959262 123.59177486 -49.61065674 129.19543457 C-53.55180343 132.63257466 -57.93560805 134.55519883 -62.85354614 136.20977783 C-65.04694482 137.01728285 -66.92387877 138.01801129 -68.92944336 139.21240234 C-72 141 -72 141 -74 141 C-74.103125 141.94875 -74.20625 142.8975 -74.3125 143.875 C-75 147 -75 147 -78 149 C-82.19143081 149.65200035 -83.73835427 149.1647399 -87.375 146.875 C-90 144 -90 144 -90.5 140.8125 C-90 138 -90 138 -88 136 C-86.69933594 135.91878906 -85.39867188 135.83757812 -84.05859375 135.75390625 C-77.85363647 135.18846352 -73.27951835 132.14543469 -68.0625 128.9375 C-66.20125918 127.81821456 -64.33807536 126.70215164 -62.47265625 125.58984375 C-61.25461304 124.84528931 -61.25461304 124.84528931 -60.01196289 124.08569336 C-58 123 -58 123 -56 123 C-56.02886795 122.29113647 -56.0577359 121.58227295 -56.08747864 120.85192871 C-56.34884422 114.1446979 -56.54629542 107.43890161 -56.67355824 100.72771454 C-56.74119847 97.27751686 -56.83274076 93.83155003 -56.98071289 90.38378906 C-57.90538662 68.25292241 -57.90538662 68.25292241 -54.8522644 63.04055786 C-51.53339024 59.66667903 -47.40667609 58.403913 -43 57 C-41.1600657 55.99295452 -39.34334183 54.94173899 -37.55859375 53.83984375 C-35.85288003 52.87007477 -34.14584815 51.90262059 -32.4375 50.9375 C-25.63037016 47.07943502 -18.86374377 43.17793099 -12.1796875 39.109375 C-10 38 -10 38 -7 38 C-7 29.42 -7 20.84 -7 12 C-7.99 11.67 -8.98 11.34 -10 11 C-10.48541424 3.59743291 -10.48541424 3.59743291 -8.375 1 C-5.34303035 -0.2766188 -3.25996064 -0.41616519 0 0 Z " fill="#3B5D94" transform="translate(91,4)"/>
<path d="M0 0 C2.375 1.6875 2.375 1.6875 4 4 C4.375 6.625 4.375 6.625 4 9 C3.34 9.66 2.68 10.32 2 11 C2.09459507 13.95530719 2.09459507 13.95530719 2.5703125 17.4140625 C3.25681323 25.82150111 3.84724106 33.93369937 1 42 C-5.33721714 49.24076326 -14.7305788 52.73722048 -23.42431641 56.40820312 C-28.46675277 58.65295835 -33.00858053 61.49531624 -37.625 64.5 C-44.71929216 69 -44.71929216 69 -47 69 C-46.94448471 69.68079117 -46.88896942 70.36158234 -46.83177185 71.06300354 C-42.93763566 121.0200251 -42.93763566 121.0200251 -49.42138672 130.171875 C-55.24311736 136.45546762 -63.74450896 139.45359389 -72 141 C-72.66 141 -73.32 141 -74 141 C-74.1546875 142.175625 -74.1546875 142.175625 -74.3125 143.375 C-75 146 -75 146 -78 148 C-81.8408179 147.86033389 -84.25602431 147.51506009 -87.4375 145.3125 C-89.45379318 142.3283861 -89.46084551 140.53314892 -89 137 C-87 135 -87 135 -83.25 134.875 C-76.66771861 134.30077836 -71.24589951 130.61664759 -65.81164551 127.08955383 C-64 126 -64 126 -61.92956543 125.1315155 C-59.49476182 123.99198637 -57.85077128 122.96367716 -56 121 C-54.89808606 116.8236086 -55.1431748 112.76364487 -55.31640625 108.47265625 C-55.33790143 105.9641928 -55.35938546 103.45572926 -55.38085938 100.94726562 C-55.46420503 96.99904181 -55.56278989 93.05149155 -55.66674805 89.10375977 C-55.75359822 85.28877679 -55.78672002 81.47594523 -55.81640625 77.66015625 C-55.86608047 76.48187759 -55.9157547 75.30359894 -55.9669342 74.08961487 C-56.01387646 66.08860433 -56.01387646 66.08860433 -53.13905334 63.00189209 C-50.8256613 61.43570292 -48.52288757 60.19398924 -46 59 C-45.00911377 58.3930127 -44.01822754 57.78602539 -42.99731445 57.16064453 C-42.1280835 56.65645996 -41.25885254 56.15227539 -40.36328125 55.6328125 C-39.37972656 55.06062988 -38.39617187 54.48844727 -37.3828125 53.89892578 C-36.36960938 53.31353027 -35.35640625 52.72813477 -34.3125 52.125 C-32.73662109 51.21016846 -32.73662109 51.21016846 -31.12890625 50.27685547 C-23.43867318 45.8173253 -15.73348784 41.38412515 -8 37 C-7.94202435 33.06256167 -7.90641211 29.12523281 -7.875 25.1875 C-7.84986328 23.50817383 -7.84986328 23.50817383 -7.82421875 21.79492188 C-7.81777344 20.72177734 -7.81132812 19.64863281 -7.8046875 18.54296875 C-7.79421387 17.55321045 -7.78374023 16.56345215 -7.77294922 15.54370117 C-7.81732596 12.7556048 -7.81732596 12.7556048 -10 10 C-10.375 6.5 -10.375 6.5 -10 3 C-7.15718952 -0.3895048 -4.25588004 -0.62064917 0 0 Z " fill="#355891" transform="translate(139,32)"/>
<path d="M0 0 C0 17.49 0 34.98 0 53 C1.65 53.66 3.3 54.32 5 55 C6.38535317 55.74250241 7.75570328 56.51369708 9.109375 57.3125 C9.86476562 57.74820313 10.62015625 58.18390625 11.3984375 58.6328125 C12.95448295 59.53749009 14.50665626 60.44886389 16.0546875 61.3671875 C20.71904295 64.03930977 24.83966995 65.68626266 30.16113281 66.54296875 C32 67 32 67 34 69 C34.4375 71.375 34.4375 71.375 34 74 C30.84231549 76.99149059 28.4069384 78.8503257 24.0625 79.3125 C21 79 21 79 19.1875 77.1875 C18 75 18 75 17 72 C14.63320563 70.29032143 14.63320563 70.29032143 11.6875 68.6796875 C10.61242187 68.06222656 9.53734375 67.44476563 8.4296875 66.80859375 C7.29789063 66.17050781 6.16609375 65.53242188 5 64.875 C2.77021257 63.60264977 0.54101295 62.32926865 -1.6875 61.0546875 C-2.68136719 60.49249512 -3.67523438 59.93030273 -4.69921875 59.35107422 C-7 58 -7 58 -8 57 C-8.09346915 55.34261557 -8.11744977 53.68125356 -8.11352539 52.02124023 C-8.11344986 50.96021591 -8.11337433 49.89919159 -8.11329651 48.80601501 C-8.10813522 47.651866 -8.10297394 46.49771698 -8.09765625 45.30859375 C-8.0962413 44.13361832 -8.09482635 42.95864288 -8.09336853 41.74806213 C-8.08774992 37.97784936 -8.07519426 34.20769496 -8.0625 30.4375 C-8.0574874 27.88867273 -8.05292408 25.33984453 -8.04882812 22.79101562 C-8.03777444 16.52732367 -8.02101821 10.26366601 -8 4 C-1.125 0 -1.125 0 0 0 Z " fill="#88C132" transform="translate(140,83)"/>
<path d="M0 0 C-0.02300171 0.63147446 -0.04600342 1.26294891 -0.06970215 1.91355896 C-0.29428307 8.51692778 -0.40516616 15.11544048 -0.45166016 21.72241211 C-0.48368414 24.18356859 -0.54420185 26.64453197 -0.63427734 29.10424805 C-1.70838038 42.18014713 -1.70838038 42.18014713 2.56298828 53.98126221 C6.34216303 57.08604643 10.50022199 58.8412855 15.12089539 60.33842468 C17.62932929 61.22156761 19.75422642 62.5925082 22 64 C24.36033677 64.48997723 24.36033677 64.48997723 26.6875 64.5625 C30.79003559 64.79003559 30.79003559 64.79003559 33 67 C33.46084551 70.53314892 33.45379318 72.3283861 31.4375 75.3125 C28.1971111 77.55584616 25.92941056 78 22 78 C19.5625 76.25 19.5625 76.25 18 74 C18 73.01 18 72.02 18 71 C17.22188965 70.76152344 16.4437793 70.52304688 15.64208984 70.27734375 C-2.02009926 64.08290928 -2.02009926 64.08290928 -8 57 C-10.93417772 49.6006285 -10.29527556 41.47966678 -9.83837891 33.67041016 C-9.62372243 29.97802408 -9.55148599 26.30344456 -9.50390625 22.60546875 C-9.44042759 20.25757843 -9.36909261 17.90988444 -9.2890625 15.5625 C-9.25728912 14.46147949 -9.22551575 13.36045898 -9.19277954 12.22607422 C-8.73129792 4.8678893 -8.73129792 4.8678893 -6.65008545 2.39794922 C-4.48749919 0.88865193 -2.6624272 0 0 0 Z " fill="#88C232" transform="translate(108,102)"/>
<path d="M0 0 C0 17.16 0 34.32 0 52 C1.65 52.66 3.3 53.32 5 54 C6.31663712 54.74882522 7.6145844 55.53157236 8.890625 56.34765625 C9.60089844 56.78787109 10.31117188 57.22808594 11.04296875 57.68164062 C12.50488317 58.59630743 13.96075959 59.52070216 15.41015625 60.45507812 C20.0508526 63.30220805 23.67797387 64.57273076 29.14355469 64.75952148 C31 65 31 65 33 67 C33.46084551 70.53314892 33.45379318 72.3283861 31.4375 75.3125 C28.21983066 77.54011724 25.89521249 77.93044263 22 78 C19.625 76.8125 19.625 76.8125 18 75 C17.84301636 74.04395874 17.84301636 74.04395874 17.68286133 73.06860352 C16.70526613 70.10715765 15.1517168 69.56251159 12.44921875 68.08984375 C11.05993164 67.31737305 11.05993164 67.31737305 9.64257812 66.52929688 C8.66740234 66.00400391 7.69222656 65.47871094 6.6875 64.9375 C4.7734866 63.88639298 2.86067991 62.83308495 0.94921875 61.77734375 C-0.32949097 61.08499634 -0.32949097 61.08499634 -1.6340332 60.37866211 C-6.04419219 57.80883775 -6.04419219 57.80883775 -8 56 C-8.48101807 53.62715149 -8.48101807 53.62715149 -8.45410156 50.79418945 C-8.45379944 49.73331619 -8.45349731 48.67244293 -8.45318604 47.579422 C-8.43254089 46.43559555 -8.41189575 45.2917691 -8.390625 44.11328125 C-8.38496521 42.94113571 -8.37930542 41.76899017 -8.37347412 40.56132507 C-8.35105322 36.81130422 -8.30084384 33.06223289 -8.25 29.3125 C-8.2299425 26.77280024 -8.21169043 24.23308553 -8.1953125 21.69335938 C-8.15116961 15.46191468 -8.08419982 9.23102516 -8 3 C-2.25 0 -2.25 0 0 0 Z " fill="#87C130" transform="translate(124,93)"/>
<path d="M0 0 C4.75 1.875 4.75 1.875 7 3 C7.37267361 10.25731154 7.65591484 17.5125304 7.82899475 24.77750969 C7.912135 28.15266123 8.02451256 31.52122363 8.20703125 34.89257812 C9.3009671 56.67477146 9.3009671 56.67477146 5.50683594 62.15783691 C1.85724569 65.53198187 -2.23538688 67.42774256 -6.86376953 69.11920166 C-9.94022365 70.38766764 -12.59758861 72.17703289 -15.35131836 74.02902222 C-17 75 -17 75 -19 75 C-19.1546875 76.175625 -19.1546875 76.175625 -19.3125 77.375 C-20 80 -20 80 -23 82 C-27.34726937 81.86199145 -29.89862332 81.74342926 -33.5 79.3125 C-35.44773956 76.30973484 -35.53443492 74.51200089 -35 71 C-32 69 -32 69 -28.02783203 68.67456055 C-18.08821163 67.70148694 -7.49166119 62.6522163 -1 55 C2.60686448 46.10716285 1.39321795 36.06139404 0.875 26.6875 C0.81278294 24.09722878 0.76060637 21.50669584 0.71875 18.91601562 C0.59503472 12.60300362 0.34689625 6.30448115 0 0 Z " fill="#315690" transform="translate(68,89)"/>
<path d="M0 0 C2.22486736 1.19903312 3.67483203 2.34683984 5.31762695 4.24902344 C3.40216403 5.43846412 1.4851693 6.62543797 -0.43237305 7.81152344 C-1.01422363 8.17358887 -1.59607422 8.5356543 -2.19555664 8.90869141 C-7.09978986 11.94186888 -12.12179443 14.7197098 -17.22143555 17.41308594 C-20.21870959 19.64914753 -21.16032028 21.88205822 -22.68237305 25.24902344 C-25.5853311 26.70050246 -27.45499084 26.62141369 -30.68237305 26.24902344 C-34.05737305 24.12402344 -34.05737305 24.12402344 -36.68237305 21.24902344 C-37.24487305 18.06152344 -37.24487305 18.06152344 -36.68237305 15.24902344 C-33.69478626 13.25729891 -32.57582945 12.96835002 -29.1706543 12.51464844 C-21.8890561 11.16595947 -16.264641 7.15215322 -10.09838867 3.24121094 C-9.2121582 2.70238281 -8.32592773 2.16355469 -7.4128418 1.60839844 C-6.62288818 1.10791992 -5.83293457 0.60744141 -5.01904297 0.09179688 C-2.68237305 -0.75097656 -2.68237305 -0.75097656 0 0 Z " fill="#315690" transform="translate(53.682373046875,135.7509765625)"/>
<path d="M0 0 C0.77956055 0.40452393 1.55912109 0.80904785 2.36230469 1.22583008 C3.35230469 1.55583008 4.34230469 1.88583008 5.36230469 2.22583008 C4.18914789 5.74530047 3.64173719 5.91927568 0.50292969 7.60083008 C-0.28339844 8.02879883 -1.06972656 8.45676758 -1.87988281 8.89770508 C-2.70746094 9.33598633 -3.53503906 9.77426758 -4.38769531 10.22583008 C-6.00783263 11.1001899 -7.62763342 11.97517365 -9.24707031 12.85083008 C-10.01083984 13.25946289 -10.77460938 13.6680957 -11.56152344 14.08911133 C-13.26616494 15.02241458 -14.93449327 16.0217484 -16.59082031 17.03833008 C-18.63769531 18.22583008 -18.63769531 18.22583008 -20.63769531 18.22583008 C-20.79238281 19.64895508 -20.79238281 19.64895508 -20.95019531 21.10083008 C-21.63769531 24.22583008 -21.63769531 24.22583008 -24.63769531 26.22583008 C-28.82912612 26.87783043 -30.37604958 26.39056998 -34.01269531 24.10083008 C-36.63769531 21.22583008 -36.63769531 21.22583008 -37.13769531 18.03833008 C-36.63769531 15.22583008 -36.63769531 15.22583008 -34.63769531 13.22583008 C-33.35378906 13.15750977 -32.06988281 13.08918945 -30.74707031 13.01879883 C-23.15493068 12.33040026 -17.13084579 7.55963288 -10.81347656 3.62231445 C-9.8325 3.03385742 -8.85152344 2.44540039 -7.84082031 1.83911133 C-6.96071289 1.29037354 -6.08060547 0.74163574 -5.17382812 0.17626953 C-2.63769531 -0.77416992 -2.63769531 -0.77416992 0 0 Z " fill="#315690" transform="translate(37.6376953125,126.774169921875)"/>
<path d="M0 0 C3.465 1.485 3.465 1.485 7 3 C7 21.48 7 39.96 7 59 C3 58 3 58 0 56 C-0.36076355 53.6335144 -0.36076355 53.6335144 -0.34057617 50.63232422 C-0.34034958 49.51131317 -0.34012299 48.39030212 -0.33988953 47.23532104 C-0.32440567 46.02071198 -0.30892181 44.80610291 -0.29296875 43.5546875 C-0.28872391 42.31453888 -0.28447906 41.07439026 -0.28010559 39.79666138 C-0.26613216 36.49864537 -0.23917361 33.2010665 -0.20599365 29.90319824 C-0.17531238 26.53838458 -0.16160446 23.17350696 -0.14648438 19.80859375 C-0.1133473 13.20555729 -0.06309697 6.60281442 0 0 Z " fill="#1C376B" transform="translate(36,70)"/>
<path d="M0 0 C5 2 5 2 7 3 C7 21.48 7 39.96 7 59 C2 57 2 57 0 56 C0 37.52 0 19.04 0 0 Z " fill="#1C376B" transform="translate(68,89)"/>
<path d="M0 0 C3.465 1.485 3.465 1.485 7 3 C7 21.48 7 39.96 7 59 C2 57 2 57 0 56 C0 37.52 0 19.04 0 0 Z " fill="#1C376B" transform="translate(84,98)"/>
<path d="M0 0 C4 1 4 1 7 3 C7.36076355 5.3664856 7.36076355 5.3664856 7.34057617 8.36767578 C7.34034958 9.48868683 7.34012299 10.60969788 7.33988953 11.76467896 C7.32440567 12.97928802 7.30892181 14.19389709 7.29296875 15.4453125 C7.28872391 16.68546112 7.28447906 17.92560974 7.28010559 19.20333862 C7.26613216 22.50135463 7.23917361 25.7989335 7.20599365 29.09680176 C7.17531238 32.46161542 7.16160446 35.82649304 7.14648438 39.19140625 C7.1133473 45.79444271 7.06309697 52.39718558 7 59 C3.535 57.02 3.535 57.02 0 55 C0 36.85 0 18.7 0 0 Z " fill="#1C376B" transform="translate(52,80)"/>
<path d="M0 0 C0.12657807 7.20806164 0.21425772 14.41583774 0.2746582 21.62475586 C0.29983207 24.07798981 0.33397363 26.53114855 0.37719727 28.98413086 C0.43771969 32.50653616 0.46618148 36.02795167 0.48828125 39.55078125 C0.51408768 40.65086014 0.5398941 41.75093903 0.56648254 42.88435364 C0.56751669 45.67973505 0.53592176 48.25655285 0 51 C-2.47911957 53.28336649 -3.65914284 54 -7 54 C-7 36.84 -7 19.68 -7 2 C-3 0 -3 0 0 0 Z " fill="#74A127" transform="translate(123,94)"/>
<path d="M0 0 C0.12671128 7.0473309 0.21431394 14.09436845 0.2746582 21.14257812 C0.29981212 23.54047625 0.33393919 25.93829764 0.37719727 28.3359375 C0.43780735 31.78144249 0.46620156 35.22593446 0.48828125 38.671875 C0.51408768 39.74491882 0.5398941 40.81796265 0.56648254 41.92352295 C0.56928857 49.35912424 0.56928857 49.35912424 -2.40551758 52.70800781 C-5 54 -5 54 -7 54 C-7 36.84 -7 19.68 -7 2 C-3 0 -3 0 0 0 Z " fill="#75A128" transform="translate(139,85)"/>
<path d="M0 0 C0.12657807 7.20806164 0.21425772 14.41583774 0.2746582 21.62475586 C0.29983207 24.07798981 0.33397363 26.53114855 0.37719727 28.98413086 C0.43771969 32.50653616 0.46618148 36.02795167 0.48828125 39.55078125 C0.51408768 40.65086014 0.5398941 41.75093903 0.56648254 42.88435364 C0.56751669 45.67973505 0.53592176 48.25655285 0 51 C-2.47911957 53.28336649 -3.65914284 54 -7 54 C-7.10126342 46.79186984 -7.17140779 39.58392248 -7.21972656 32.37524414 C-7.23986533 29.92204941 -7.26717818 27.46890281 -7.30175781 25.01586914 C-7.35017482 21.49353167 -7.37294629 17.97182777 -7.390625 14.44921875 C-7.41127014 13.34913986 -7.43191528 12.24906097 -7.45318604 11.11564636 C-7.45348816 10.09481461 -7.45379028 9.07398285 -7.45410156 8.0222168 C-7.46298401 7.12286911 -7.47186646 6.22352142 -7.48101807 5.29692078 C-7 3 -7 3 -5.15911865 1.18611145 C-3 0 -3 0 0 0 Z " fill="#73A025" transform="translate(107,103)"/>
<path d="M0 0 C2 2 2 2 2.265625 3.875 C2.26046875 4.57625 2.2553125 5.2775 2.25 6 C2.25515625 6.70125 2.2603125 7.4025 2.265625 8.125 C2 10 2 10 0 12 C-0.37268887 14.91188245 -0.37268887 14.91188245 -0.4140625 18.3203125 C-0.47207031 20.20556641 -0.47207031 20.20556641 -0.53125 22.12890625 C-0.5621875 23.44761719 -0.593125 24.76632813 -0.625 26.125 C-0.66318029 27.46486918 -0.70223206 28.80471383 -0.7421875 30.14453125 C-0.8367203 33.42954619 -0.92227156 36.71455138 -1 40 C-5.75 38.125 -5.75 38.125 -8 37 C-8.01981934 36.25314941 -8.03963867 35.50629883 -8.06005859 34.73681641 C-8.15508211 31.36584395 -8.26485259 27.99551071 -8.375 24.625 C-8.4059375 23.449375 -8.436875 22.27375 -8.46875 21.0625 C-8.50742188 19.94101562 -8.54609375 18.81953125 -8.5859375 17.6640625 C-8.6173584 16.62717285 -8.6487793 15.5902832 -8.68115234 14.52197266 C-8.75954472 11.83190165 -8.75954472 11.83190165 -11 10 C-11.5410628 4.04830918 -11.5410628 4.04830918 -10 1.0625 C-6.64558048 -0.71953537 -3.76220155 -0.29858742 0 0 Z " fill="#253F7D" transform="translate(124,23)"/>
<path d="M0 0 C2 2 2 2 2.25 5.5 C2 9 2 9 0 11 C-0.37296556 14.00972657 -0.37296556 14.00972657 -0.4140625 17.5390625 C-0.45273438 18.84101562 -0.49140625 20.14296875 -0.53125 21.484375 C-0.56270763 22.86457862 -0.59395491 24.24478704 -0.625 25.625 C-0.66317934 27.01304541 -0.70223105 28.40106711 -0.7421875 29.7890625 C-0.83672943 33.19257185 -0.92227897 36.59607165 -1 40 C-5.76979767 38.28222462 -5.76979767 38.28222462 -8 36 C-9.0101421 31.97332204 -8.88741984 28.00767507 -8.8125 23.875 C-8.81122816 21.68488653 -8.81735968 19.4947522 -8.83203125 17.3046875 C-8.81889893 16.33515137 -8.8057666 15.36561523 -8.79223633 14.36669922 C-8.76123345 11.81039232 -8.76123345 11.81039232 -11 10 C-11.67681895 2.89340102 -11.67681895 2.89340102 -9.4375 -0.0625 C-5.9788559 -1.39274773 -3.5559841 -0.85607025 0 0 Z " fill="#253F7D" transform="translate(108,14)"/>
<path d="M0 0 C1.875 1.0625 1.875 1.0625 3 3 C3.3125 6.5625 3.3125 6.5625 3 10 C2.34 10.66 1.68 11.32 1 12 C0.62731113 14.91188245 0.62731113 14.91188245 0.5859375 18.3203125 C0.52792969 20.20556641 0.52792969 20.20556641 0.46875 22.12890625 C0.4378125 23.44761719 0.406875 24.76632813 0.375 26.125 C0.33681971 27.46486918 0.29776794 28.80471383 0.2578125 30.14453125 C0.1632797 33.42954619 0.07772844 36.71455138 0 40 C-4.75 38.125 -4.75 38.125 -7 37 C-7 28.75 -7 20.5 -7 12 C-7.99 11.67 -8.98 11.34 -10 11 C-10.48541424 3.59743291 -10.48541424 3.59743291 -8.375 1 C-5.34303035 -0.2766188 -3.25996064 -0.41616519 0 0 Z " fill="#253F7D" transform="translate(91,4)"/>
<path d="M0 0 C2.83171242 2.01200619 3.84987863 3.12071767 4.4375 6.5625 C4 9 4 9 2.50463867 10.2512207 C0.26414784 12.85525053 0.56497199 15.02823802 0.48828125 18.41796875 C0.45283203 19.67158203 0.41738281 20.92519531 0.38085938 22.21679688 C0.34702148 24.18229492 0.34702148 24.18229492 0.3125 26.1875 C0.27932334 27.52282013 0.24483334 28.85810832 0.20898438 30.19335938 C0.12637943 33.46215504 0.05726771 36.73067812 0 40 C-1.98 39.34 -3.96 38.68 -6 38 C-6 29.75 -6 21.5 -6 13 C-6.99 12.67 -7.98 12.34 -9 12 C-10.54163175 8.9167365 -10.29747535 6.39121901 -10 3 C-7.15718952 -0.3895048 -4.25588004 -0.62064917 0 0 Z " fill="#28417E" transform="translate(139,32)"/>
</svg>
